#!OML:ASF I:\Random Stuff\random\construction\7_22_03\Session 2\subj1.ASF
:FULLY-SPECIFIED
:DEGREES
1444
root 4.79597 17.2468 -10.7104 39.2033 -11.779 -10.5892
lowerback 34.208 -0.895867 -6.17807
upperback 12.6505 -3.79836 -8.41921
thorax -3.69162 -1.78427 -4.31767
lowerneck -12.7762 -9.79636 -13.8927
upperneck 30.1553 -11.9179 5.99936
head 13.5959 -5.99073 2.78401
rclavicle -2.22639e-014 6.2816e-014
rhumerus -23.076 4.4995 -48.1988
rradius 128.41
rwrist 12.4599
rhand -13.4345 25.5137
rfingers 7.12502
rthumb 12.6744 -4.08176
lclavicle -2.22639e-014 6.2816e-014
lhumerus 33.7814 -54.8882 63.4042
lradius 87.3391
lwrist 94.0416
lhand -16.0637 51.2709
lfingers 7.12502
lthumb -169.861 1341.01
rfemur -54.0594 -5.0911 42.4406
rtibia 15.944
rfoot -2.22695 8.26001
rtoes -23.9971
lfemur -59.8521 6.41565 1.67998
ltibia 39.2332
lfoot -13.2208 4.28001
ltoes -31.6594
1445
root 4.79687 17.2471 -10.7118 39.1551 -11.7534 -10.6064
lowerback 34.1893 -0.90997 -6.1494
upperback 12.6611 -3.80121 -8.38918
thorax -3.67316 -1.78652 -4.30044
lowerneck -12.9354 -9.78397 -13.7233
upperneck 30.2868 -11.8807 5.84268
head 13.6555 -5.97154 2.69607
rclavicle 4.13472e-014 7.95139e-016
rhumerus -23.0184 4.5318 -48.2186
rradius 128.543
rwrist 12.2274
rhand -12.3219 25.6138
rfingers 7.12502
rthumb 13.7468 -3.91208
lclavicle 4.13472e-014 7.95139e-016
lhumerus 33.7106 -54.8532 63.4573
lradius 87.4716
lwrist 94.3102
lhand -16.3796 51.469
lfingers 7.12502
lthumb -170.166 1341.22
rfemur -53.9785 -5.06894 42.4135
rtibia 15.8977
rfoot -2.20071 8.19201
rtoes -24.0659
lfemur -59.823 6.42335 1.69203
ltibia 39.2512
lfoot -13.2442 4.21078
ltoes -31.5893
1446
root 4.79817 17.2479 -10.7129 39.1123 -11.7426 -10.605
lowerback 34.1717 -0.90874 -6.1145
upperback 12.6541 -3.78547 -8.35619
thorax -3.67375 -1.77942 -4.28901
lowerneck -13.0628 -9.78852 -13.5664
upperneck 30.4381 -11.8785 5.71469
head 13.7247 -5.96632 2.61615
rclavicle -4.77083e-014 -6.87795e-014
rhumerus -22.9769 4.59129 -48.2239
rradius 128.515
rwrist 12.1415
rhand -11.7375 25.9002
rfingers 7.12502
rthumb 14.3099 -3.58668
lclavicle -4.77083e-014 -6.87795e-014
lhumerus 33.6038 -54.8826 63.6247
lradius 87.5422
lwrist 94.51
lhand -16.6673 51.5567
lfingers 7.12502
lthumb -170.444 1341.32
rfemur -53.9221 -5.09767 42.4127
rtibia 15.8649
rfoot -2.18856 8.21312
rtoes -24.0439
lfemur -59.8069 6.4505 1.65244
ltibia 39.2775
lfoot -13.2835 4.14335
ltoes -31.691
1447
root 4.80112 17.248 -10.7142 39.0878 -11.7301 -10.6229
lowerback 34.176 -0.87632 -6.0756
upperback 12.6219 -3.73251 -8.28514
thorax -3.70491 -1.75502 -4.2509
lowerneck -12.9771 -9.83663 -13.6344
upperneck 30.4006 -11.9771 5.83096
head 13.7169 -6.00451 2.65794
rclavicle -1.27222e-014 -2.8625e-014
rhumerus -22.968 4.67068 -48.1927
rradius 128.417
rwrist 12.2534
rhand -11.6871 25.946
rfingers 7.12502
rthumb 14.3585 -3.53748
lclavicle -1.27222e-014 -2.8625e-014
lhumerus 33.5665 -55.0475 63.8293
lradius 87.4627
lwrist 95.2997
lhand -17.0948 51.0961
lfingers 7.12502
lthumb -170.856 1340.88
rfemur -53.9003 -5.13401 42.4487
rtibia 15.8665
rfoot -2.1773 8.24422
rtoes -23.911
lfemur -59.8083 6.49437 1.62165
ltibia 39.3066
lfoot -13.2675 4.11949
ltoes -31.8126
1448
root 4.80435 17.2463 -10.716 39.0913 -11.7298 -10.642
lowerback 34.1579 -0.833454 -6.05702
upperback 12.5788 -3.67118 -8.20639
thorax -3.73715 -1.72743 -4.19698
lowerneck -12.859 -9.90225 -13.743
upperneck 30.3475 -12.0906 5.94222
head 13.701 -6.05458 2.70259
rclavicle -2.22639e-014 -1.35174e-014
rhumerus -22.9428 4.75309 -48.1932
rradius 128.29
rwrist 12.4594
rhand -11.8936 25.7969
rfingers 7.12502
rthumb 14.1596 -3.70061
lclavicle -2.22639e-014 -1.35174e-014
lhumerus 33.4641 -55.2171 64.0829
lradius 87.3758
lwrist 95.8345
lhand -17.1281 50.6994
lfingers 7.12502
lthumb -170.888 1340.48
rfemur -53.913 -5.1293 42.4623
rtibia 15.8792
rfoot -2.16457 8.23812
rtoes -23.968
lfemur -59.8384 6.55231 1.58794
ltibia 39.3347
lfoot -13.2236 4.09581
ltoes -32.037
1449
root 4.80582 17.2456 -10.7172 39.093 -11.7627 -10.6377
lowerback 34.0954 -0.818887 -6.11023
upperback 12.5621 -3.66126 -8.16336
thorax -3.72377 -1.72601 -4.12773
lowerneck -12.9067 -9.90606 -13.7049
upperneck 30.3396 -12.1026 5.94424
head 13.7059 -6.05464 2.69293
rclavicle -3.81667e-014 4.65156e-014
rhumerus -22.7709 4.8977 -48.2738
rradius 128.071
rwrist 12.6838
rhand -12.2334 25.8199
rfingers 7.12502
rthumb 13.8321 -3.70014
lclavicle -3.81667e-014 4.65156e-014
lhumerus 33.1243 -55.119 64.4592
lradius 87.6643
lwrist 95.2522
lhand -17.0299 51.6603
lfingers 7.12502
lthumb -170.794 1341.44
rfemur -53.93 -5.11064 42.4376
rtibia 15.9001
rfoot -2.18372 8.24034
rtoes -24.2092
lfemur -59.8509 6.58973 1.54546
ltibia 39.3576
lfoot -13.2244 4.05899
ltoes -32.0215
1450
root 4.80646 17.2463 -10.7184 39.0814 -11.8021 -10.6157
lowerback 34.0503 -0.84327 -6.16701
upperback 12.5526 -3.704 -8.16469
thorax -3.71472 -1.74804 -4.08585
lowerneck -13.0645 -9.86697 -13.5828
upperneck 30.3688 -12.0573 5.92041
head 13.7336 -6.02215 2.66598
rclavicle 9.54166e-015 1.22849e-013
rhumerus -22.5178 5.06193 -48.4498
rradius 127.836
rwrist 12.7704
rhand -12.3631 26.0064
rfingers 7.12502
rthumb 13.7071 -3.52218
lclavicle 9.54166e-015 1.22849e-013
lhumerus 32.7409 -54.938 64.7727
lradius 88.0176
lwrist 94.8661
lhand -17.0447 52.6472
lfingers 7.12502
lthumb -170.808 1342.43
rfemur -53.9499 -5.10728 42.4009
rtibia 15.941
rfoot -2.19671 8.25529
rtoes -24.1047
lfemur -59.8452 6.60637 1.49628
ltibia 39.3688
lfoot -13.2454 4.02466
ltoes -31.7294
1451
root 4.80797 17.2457 -10.7203 39.0787 -11.8393 -10.601
lowerback 34.0275 -0.851631 -6.17005
upperback 12.5252 -3.71621 -8.17115
thorax -3.73712 -1.75341 -4.08659
lowerneck -13.1867 -9.86316 -13.5169
upperneck 30.4439 -12.0668 5.93977
head 13.789 -6.0149 2.65641
rclavicle -1.90833e-014 -6.67916e-014
rhumerus -22.3782 5.09298 -48.6136
rradius 127.718
rwrist 12.6942
rhand -11.7954 26.5598
rfingers 7.12502
rthumb 14.2541 -2.93103
lclavicle -1.90833e-014 -6.67916e-014
lhumerus 32.5611 -55.0018 64.8481
lradius 88.1049
lwrist 95.4294
lhand -17.4449 52.4071
lfingers 7.12502
lthumb -171.194 1342.2
rfemur -53.9853 -5.09826 42.3725
rtibia 15.9938
rfoot -2.18827 8.27423
rtoes -23.7917
lfemur -59.8426 6.62875 1.44815
ltibia 39.361
lfoot -13.2319 4.03793
ltoes -31.6753
1452
root 4.80983 17.245 -10.7227 39.0643 -11.897 -10.5817
lowerback 33.9873 -0.815542 -6.18908
upperback 12.51 -3.6757 -8.16107
thorax -3.73493 -1.73545 -4.0797
lowerneck -13.2284 -9.88423 -13.5558
upperneck 30.457 -12.1386 6.1047
head 13.8285 -6.03044 2.71269
rclavicle 4.77083e-014 -2.78299e-014
rhumerus -22.3306 5.02702 -48.6964
rradius 127.687
rwrist 12.5794
rhand -11.9201 26.1216
rfingers 7.12502
rthumb 14.134 -3.3777
lclavicle 4.77083e-014 -2.78299e-014
lhumerus 32.6946 -55.2633 64.6659
lradius 87.7048
lwrist 95.659
lhand -16.635 50.8826
lfingers 7.12502
lthumb -170.412 1340.64
rfemur -54.0124 -5.08219 42.3287
rtibia 16.051
rfoot -2.20386 8.28534
rtoes -23.8091
lfemur -59.8107 6.63048 1.404
ltibia 39.3385
lfoot -13.1726 4.07458
ltoes -31.9238
